# xmcd
#
# Track frame offsets:
#	150
#	14602
#	22227
#	67400
#	89527
#	96699
#	133173
#	204900
#	236206
#	249106
#	298638
#
# Disc length: 4050 seconds
# Revision: 0
# Processed by: cddbd v1.5.2PL0 Copyright (c) Steve Scherf et al.
# Submitted via: dBpowerAMP V12.0
#
DISCID=ad0fd00b
DTITLE=Hale Dwoskin - The Inner Circle Retreat 02 CD 11
DYEAR=2007
DGENRE=Speech
TTITLE0=Sharing - The Funny Sounds in Your Head
TTITLE1=Participant Gain
TTITLE2=You Are Not Doing Anything
TTITLE3=Resisting a Cold
TTITLE4=Participant Gain
TTITLE5=Designer Diagnosis
TTITLE6=Release on Designer Problems - Taking Green Pills
TTITLE7=Mutuality and Harmlessness
TTITLE8=Love and Hate about Your Body
TTITLE9=Release on Love and Hate about Your Body
TTITLE10=Sharing
EXTD=
EXTT0=
EXTT1=
EXTT2=
EXTT3=
EXTT4=
EXTT5=
EXTT6=
EXTT7=
EXTT8=
EXTT9=
EXTT10=
PLAYORDER=
